<svg id="Ebene_1" data-name="Ebene 1" xmlns="http://www.w3.org/2000/svg" xmlns:xlink="http://www.w3.org/1999/xlink" viewBox="0 0 791.96 763.56"><defs><style>.cls-1{fill:#dcdcdc;}.cls-2{fill:url(#Unbenannter_Verlauf_4);}</style><linearGradient id="Unbenannter_Verlauf_4" x1="1160.8" y1="1065.56" x2="1952.76" y2="1065.56" gradientUnits="userSpaceOnUse"><stop offset="0" stop-color="#31b1e7"/><stop offset="0.5" stop-color="#268cf5"/><stop offset="1" stop-color="#2f58f7"/></linearGradient></defs><title>background_bond</title><path class="cls-1" d="M1217.47,1365.34h679c-1.34,1.82-3.32,4.48-5.73,7.66-51.81,68.31-118.56,156.29-188.77,156.34-17.84,0-49.89-20.32-114-61-75.44-47.87-81.89-62-106-61-60,2.48-74.63,92.25-127,98C1325.51,1508.58,1281.19,1485.53,1217.47,1365.34Z" transform="translate(-1160.8 -765.78)"/><path class="cls-2" d="M1921.64,1007.63a396,396,0,0,0-729.71,308.11,399.83,399.83,0,0,0,25.33,49.6H1253a362.6,362.6,0,0,1-62.21-203.74c0-201.8,164.18-365.9,366-365.9s366,164.05,366,365.86a362.74,362.74,0,0,1-62.21,203.79h35.76a399.86,399.86,0,0,0,25.33-49.6A396.82,396.82,0,0,0,1921.64,1007.63Z" transform="translate(-1160.8 -765.78)"/></svg>