<svg id="Ebene_1" data-name="Ebene 1" xmlns="http://www.w3.org/2000/svg" viewBox="0 0 730.75 658.5"><defs><style>.cls-1{fill:#f2f2f2;}.cls-2{fill:#ccc;}.cls-3{fill:#e6e6e6;}.cls-4{fill:#b3b3b3;}.cls-5{fill:#999;}</style></defs><title>background_code</title><rect class="cls-1" y="253" width="629" height="23" rx="5" ry="5"/><rect class="cls-1" y="168" width="493" height="23" rx="5" ry="5"/><rect class="cls-1" y="365" width="211" height="23" rx="5" ry="5"/><rect class="cls-1" y="450" width="388" height="23" rx="5" ry="5"/><rect class="cls-2" width="232" height="23" rx="5" ry="5"/><rect class="cls-3" x="252.75" width="415.5" height="23" rx="5" ry="5"/><rect class="cls-2" y="30" width="232" height="23" rx="5" ry="5"/><rect class="cls-3" x="252.75" y="30" width="77.5" height="23" rx="5" ry="5"/><rect class="cls-2" y="84" width="232" height="23" rx="5" ry="5"/><rect class="cls-3" x="252.75" y="84" width="308.25" height="23" rx="5" ry="5"/><rect class="cls-3" y="198" width="77.5" height="23" rx="5" ry="5"/><rect class="cls-3" x="96.63" y="198" width="77.5" height="23" rx="5" ry="5"/><rect class="cls-3" x="194.77" y="198" width="77.5" height="23" rx="5" ry="5"/><rect class="cls-3" x="292.92" y="198" width="77.5" height="23" rx="5" ry="5"/><rect class="cls-4" x="391.25" y="198" width="335" height="23" rx="5" ry="5"/><rect class="cls-3" y="282.67" width="129.5" height="23" rx="5" ry="5"/><rect class="cls-4" x="150.25" y="282.67" width="361.5" height="23" rx="5" ry="5"/><rect class="cls-3" y="312.33" width="129.5" height="23" rx="5" ry="5"/><rect class="cls-4" x="150.25" y="312.33" width="580.5" height="23" rx="5" ry="5"/><rect class="cls-4" y="481" width="124.5" height="23" rx="5" ry="5"/><rect class="cls-3" x="145.63" y="481" width="77.5" height="23" rx="5" ry="5"/><rect class="cls-3" x="90.46" y="511.17" width="77.5" height="23" rx="5" ry="5"/><rect class="cls-4" x="41.21" y="511.17" width="28.5" height="23" rx="5" ry="5"/><rect class="cls-3" x="77.5" y="541.33" width="149" height="23" rx="5" ry="5"/><rect class="cls-5" x="247.79" y="541.33" width="49" height="23" rx="5" ry="5"/><rect class="cls-1" y="605" width="572.75" height="23" rx="5" ry="5"/><rect class="cls-5" y="635.5" width="62.25" height="23" rx="5" ry="5"/><rect class="cls-3" x="82.63" y="635.5" width="341.5" height="23" rx="5" ry="5"/><rect class="cls-4" x="444.88" y="635.5" width="94" height="23" rx="5" ry="5"/><rect class="cls-4" y="392.5" width="124.5" height="23" rx="5" ry="5"/><rect class="cls-3" x="145.63" y="392.5" width="145.87" height="23" rx="5" ry="5"/></svg>