<svg id="Ebene_1" data-name="Ebene 1" xmlns="http://www.w3.org/2000/svg" xmlns:xlink="http://www.w3.org/1999/xlink" viewBox="0 0 661 776.46"><defs><style>.cls-1{stroke:#f2f2f2;stroke-miterlimit:10;stroke-width:20px;fill:url(#Unbenannter_Verlauf_4);}.cls-2{fill:#f2f2f2;}.cls-3{fill:url(#Unbenannter_Verlauf_31);}.cls-4{fill:url(#Unbenannter_Verlauf_31-2);}.cls-5{fill:url(#Unbenannter_Verlauf_10);}.cls-6{fill:url(#Unbenannter_Verlauf_10-2);}.cls-7{fill:#fff;}.cls-8{fill:url(#Unbenannter_Verlauf_10-3);}.cls-9{fill:url(#Unbenannter_Verlauf_10-4);}.cls-10{fill:url(#Unbenannter_Verlauf_10-5);}.cls-11{fill:url(#Unbenannter_Verlauf_10-6);}.cls-12{fill:url(#Unbenannter_Verlauf_10-7);}.cls-13{fill:url(#Unbenannter_Verlauf_10-8);}.cls-14{fill:url(#Unbenannter_Verlauf_10-9);}.cls-15{fill:url(#Unbenannter_Verlauf_10-10);}.cls-16{fill:url(#Unbenannter_Verlauf_10-11);}.cls-17{fill:url(#Unbenannter_Verlauf_10-12);}.cls-18{fill:url(#Unbenannter_Verlauf_10-13);}.cls-19{fill:url(#Unbenannter_Verlauf_10-14);}.cls-20{fill:url(#Unbenannter_Verlauf_10-15);}.cls-21{fill:url(#Unbenannter_Verlauf_10-16);}.cls-22{fill:url(#Unbenannter_Verlauf_10-17);}.cls-23{fill:url(#Unbenannter_Verlauf_10-18);}.cls-24{fill:url(#Unbenannter_Verlauf_10-19);}.cls-25{fill:url(#Unbenannter_Verlauf_10-20);}.cls-26{fill:url(#Unbenannter_Verlauf_10-21);}.cls-27{fill:url(#Unbenannter_Verlauf_10-22);}.cls-28{fill:url(#Unbenannter_Verlauf_10-23);}.cls-29{fill:url(#Unbenannter_Verlauf_10-24);}.cls-30{fill:url(#Unbenannter_Verlauf_10-25);}.cls-31{fill:url(#Unbenannter_Verlauf_10-26);}.cls-32{fill:url(#Unbenannter_Verlauf_10-27);}.cls-33{fill:url(#Unbenannter_Verlauf_10-28);}.cls-34{fill:url(#Unbenannter_Verlauf_10-29);}.cls-35{fill:url(#Unbenannter_Verlauf_10-30);}.cls-36{fill:url(#Unbenannter_Verlauf_10-31);}.cls-37{fill:url(#Unbenannter_Verlauf_10-32);}.cls-38{fill:url(#Unbenannter_Verlauf_10-33);}.cls-39{fill:url(#Unbenannter_Verlauf_10-34);}.cls-40{fill:url(#Unbenannter_Verlauf_4-2);}.cls-41{fill:url(#Unbenannter_Verlauf_4-3);}.cls-42{fill:url(#Unbenannter_Verlauf_4-4);}.cls-43{fill:url(#Unbenannter_Verlauf_4-5);}.cls-44{fill:url(#Unbenannter_Verlauf_18);}.cls-45{fill:url(#Unbenannter_Verlauf_26);}.cls-46{fill:url(#Unbenannter_Verlauf_4-6);}.cls-47{fill:url(#Unbenannter_Verlauf_4-7);}.cls-48{fill:url(#Unbenannter_Verlauf_4-8);}.cls-49{fill:url(#Unbenannter_Verlauf_4-9);}.cls-50{fill:url(#Unbenannter_Verlauf_18-2);}.cls-51{fill:url(#Unbenannter_Verlauf_18-3);}.cls-52{fill:url(#Unbenannter_Verlauf_10-35);}.cls-53{fill:#e6e6e6;}.cls-54{fill:url(#Unbenannter_Verlauf_4-10);}.cls-55{fill:url(#Unbenannter_Verlauf_4-11);}.cls-56{fill:url(#Unbenannter_Verlauf_4-12);}</style><linearGradient id="Unbenannter_Verlauf_4" x1="86.94" y1="194.84" x2="581.13" y2="194.84" gradientUnits="userSpaceOnUse"><stop offset="0" stop-color="#31b1e7"/><stop offset="0.5" stop-color="#268cf5"/><stop offset="1" stop-color="#2f58f7"/></linearGradient><linearGradient id="Unbenannter_Verlauf_31" x1="2585.64" y1="1983.18" x2="2632.01" y2="1983.18" gradientUnits="userSpaceOnUse"><stop offset="0" stop-color="#268cf5"/><stop offset="1" stop-color="#2f58f7"/></linearGradient><linearGradient id="Unbenannter_Verlauf_31-2" x1="2493" y1="1983.18" x2="2539.37" y2="1983.18" xlink:href="#Unbenannter_Verlauf_31"/><linearGradient id="Unbenannter_Verlauf_10" x1="2499.51" y1="2060.62" x2="2529.19" y2="2060.62" gradientUnits="userSpaceOnUse"><stop offset="0" stop-color="#f2f2f2"/><stop offset="0.53" stop-color="#e9e9e9"/><stop offset="0.99" stop-color="#dcdcdc"/></linearGradient><linearGradient id="Unbenannter_Verlauf_10-2" x1="2474.45" y1="2060.62" x2="2504.12" y2="2060.62" gradientTransform="matrix(-1, 0, 0, 1, 5099.94, 0)" xlink:href="#Unbenannter_Verlauf_10"/><linearGradient id="Unbenannter_Verlauf_10-3" x1="265.66" y1="376.74" x2="429.5" y2="376.74" xlink:href="#Unbenannter_Verlauf_10"/><linearGradient id="Unbenannter_Verlauf_10-4" x1="265.66" y1="354.6" x2="394.07" y2="354.6" xlink:href="#Unbenannter_Verlauf_10"/><linearGradient id="Unbenannter_Verlauf_10-5" x1="265.66" y1="405.92" x2="320.62" y2="405.92" xlink:href="#Unbenannter_Verlauf_10"/><linearGradient id="Unbenannter_Verlauf_10-6" x1="265.66" y1="428.06" x2="366.72" y2="428.06" xlink:href="#Unbenannter_Verlauf_10"/><linearGradient id="Unbenannter_Verlauf_10-7" x1="265.66" y1="310.84" x2="326.09" y2="310.84" xlink:href="#Unbenannter_Verlauf_10"/><linearGradient id="Unbenannter_Verlauf_10-8" x1="331.49" y1="310.84" x2="439.72" y2="310.84" xlink:href="#Unbenannter_Verlauf_10"/><linearGradient id="Unbenannter_Verlauf_10-9" x1="265.66" y1="318.66" x2="326.09" y2="318.66" xlink:href="#Unbenannter_Verlauf_10"/><linearGradient id="Unbenannter_Verlauf_10-10" x1="331.49" y1="318.66" x2="351.68" y2="318.66" xlink:href="#Unbenannter_Verlauf_10"/><linearGradient id="Unbenannter_Verlauf_10-11" x1="265.66" y1="332.72" x2="326.09" y2="332.72" xlink:href="#Unbenannter_Verlauf_10"/><linearGradient id="Unbenannter_Verlauf_10-12" x1="331.49" y1="332.72" x2="411.79" y2="332.72" xlink:href="#Unbenannter_Verlauf_10"/><linearGradient id="Unbenannter_Verlauf_10-13" x1="265.66" y1="362.42" x2="285.84" y2="362.42" xlink:href="#Unbenannter_Verlauf_10"/><linearGradient id="Unbenannter_Verlauf_10-14" x1="290.83" y1="362.42" x2="311.01" y2="362.42" xlink:href="#Unbenannter_Verlauf_10"/><linearGradient id="Unbenannter_Verlauf_10-15" x1="316.39" y1="362.42" x2="336.58" y2="362.42" xlink:href="#Unbenannter_Verlauf_10"/><linearGradient id="Unbenannter_Verlauf_10-16" x1="341.96" y1="362.42" x2="362.14" y2="362.42" xlink:href="#Unbenannter_Verlauf_10"/><linearGradient id="Unbenannter_Verlauf_10-17" x1="367.57" y1="362.42" x2="454.83" y2="362.42" xlink:href="#Unbenannter_Verlauf_10"/><linearGradient id="Unbenannter_Verlauf_10-18" x1="265.66" y1="384.47" x2="299.39" y2="384.47" xlink:href="#Unbenannter_Verlauf_10"/><linearGradient id="Unbenannter_Verlauf_10-19" x1="304.79" y1="384.47" x2="398.96" y2="384.47" xlink:href="#Unbenannter_Verlauf_10"/><linearGradient id="Unbenannter_Verlauf_10-20" x1="265.66" y1="392.2" x2="299.39" y2="392.2" xlink:href="#Unbenannter_Verlauf_10"/><linearGradient id="Unbenannter_Verlauf_10-21" x1="304.79" y1="392.2" x2="456" y2="392.2" xlink:href="#Unbenannter_Verlauf_10"/><linearGradient id="Unbenannter_Verlauf_10-22" x1="265.66" y1="436.13" x2="298.09" y2="436.13" xlink:href="#Unbenannter_Verlauf_10"/><linearGradient id="Unbenannter_Verlauf_10-23" x1="303.59" y1="436.13" x2="323.78" y2="436.13" xlink:href="#Unbenannter_Verlauf_10"/><linearGradient id="Unbenannter_Verlauf_10-24" x1="289.22" y1="443.99" x2="309.41" y2="443.99" xlink:href="#Unbenannter_Verlauf_10"/><linearGradient id="Unbenannter_Verlauf_10-25" x1="276.39" y1="443.99" x2="283.81" y2="443.99" xlink:href="#Unbenannter_Verlauf_10"/><linearGradient id="Unbenannter_Verlauf_10-26" x1="285.84" y1="451.85" x2="324.65" y2="451.85" xlink:href="#Unbenannter_Verlauf_10"/><linearGradient id="Unbenannter_Verlauf_10-27" x1="330.2" y1="451.85" x2="342.96" y2="451.85" xlink:href="#Unbenannter_Verlauf_10"/><linearGradient id="Unbenannter_Verlauf_10-28" x1="265.66" y1="468.43" x2="414.85" y2="468.43" xlink:href="#Unbenannter_Verlauf_10"/><linearGradient id="Unbenannter_Verlauf_10-29" x1="265.66" y1="476.38" x2="281.87" y2="476.38" xlink:href="#Unbenannter_Verlauf_10"/><linearGradient id="Unbenannter_Verlauf_10-30" x1="287.18" y1="476.38" x2="376.13" y2="476.38" xlink:href="#Unbenannter_Verlauf_10"/><linearGradient id="Unbenannter_Verlauf_10-31" x1="381.54" y1="476.38" x2="406.02" y2="476.38" xlink:href="#Unbenannter_Verlauf_10"/><linearGradient id="Unbenannter_Verlauf_10-32" x1="265.66" y1="413.08" x2="298.09" y2="413.08" xlink:href="#Unbenannter_Verlauf_10"/><linearGradient id="Unbenannter_Verlauf_10-33" x1="303.59" y1="413.08" x2="341.59" y2="413.08" xlink:href="#Unbenannter_Verlauf_10"/><linearGradient id="Unbenannter_Verlauf_10-34" x1="189.4" y1="381.71" x2="242.45" y2="381.71" xlink:href="#Unbenannter_Verlauf_10"/><linearGradient id="Unbenannter_Verlauf_4-2" x1="2398.89" y1="1727.15" x2="2727.2" y2="1727.15" xlink:href="#Unbenannter_Verlauf_4"/><linearGradient id="Unbenannter_Verlauf_4-3" x1="77.87" y1="624.96" x2="96" y2="624.96" xlink:href="#Unbenannter_Verlauf_4"/><linearGradient id="Unbenannter_Verlauf_4-4" x1="572" y1="624.96" x2="590.26" y2="624.96" xlink:href="#Unbenannter_Verlauf_4"/><linearGradient id="Unbenannter_Verlauf_4-5" x1="35.48" y1="516.87" x2="636.39" y2="516.87" xlink:href="#Unbenannter_Verlauf_4"/><linearGradient id="Unbenannter_Verlauf_18" x1="2513.85" y1="1685.06" x2="2611.17" y2="1685.06" gradientUnits="userSpaceOnUse"><stop offset="0" stop-color="#facea3"/><stop offset="1" stop-color="#f6ae65"/></linearGradient><linearGradient id="Unbenannter_Verlauf_26" x1="2522.37" y1="1669.26" x2="2603.71" y2="1669.26" gradientUnits="userSpaceOnUse"><stop offset="0" stop-color="#bd9660"/><stop offset="1" stop-color="#705e44"/></linearGradient><linearGradient id="Unbenannter_Verlauf_4-6" x1="2743.07" y1="1834.5" x2="2765.65" y2="1834.5" xlink:href="#Unbenannter_Verlauf_4"/><linearGradient id="Unbenannter_Verlauf_4-7" x1="496.73" y1="492.03" x2="531.33" y2="492.03" xlink:href="#Unbenannter_Verlauf_4"/><linearGradient id="Unbenannter_Verlauf_4-8" x1="2729.17" y1="1806.32" x2="2737.8" y2="1806.32" xlink:href="#Unbenannter_Verlauf_4"/><linearGradient id="Unbenannter_Verlauf_4-9" x1="2736.4" y1="1806.32" x2="2745.03" y2="1806.32" xlink:href="#Unbenannter_Verlauf_4"/><linearGradient id="Unbenannter_Verlauf_18-2" x1="237.57" y1="494.54" x2="268.91" y2="494.54" xlink:href="#Unbenannter_Verlauf_18"/><linearGradient id="Unbenannter_Verlauf_18-3" x1="410.15" y1="494.54" x2="441.5" y2="494.54" xlink:href="#Unbenannter_Verlauf_18"/><linearGradient id="Unbenannter_Verlauf_10-35" x1="2459.58" y1="1833.11" x2="2665.43" y2="1833.11" xlink:href="#Unbenannter_Verlauf_10"/><linearGradient id="Unbenannter_Verlauf_4-10" x1="289" y1="662.15" x2="307.06" y2="662.15" xlink:href="#Unbenannter_Verlauf_4"/><linearGradient id="Unbenannter_Verlauf_4-11" x1="371.87" y1="662.15" x2="390" y2="662.15" xlink:href="#Unbenannter_Verlauf_4"/><linearGradient id="Unbenannter_Verlauf_4-12" x1="2483.38" y1="1863.34" x2="2641.63" y2="1863.34" xlink:href="#Unbenannter_Verlauf_4"/></defs><title>background_coding</title><rect class="cls-1" x="86.94" y="10" width="494.2" height="369.67"/><rect class="cls-2" x="280" y="697.9" width="23" height="9"/><rect class="cls-2" x="376" y="697.9" width="24" height="9"/><path class="cls-3" d="M2628.12,1929.62c1.95,3.11,2.78,7.46,3.17,9.48a40.89,40.89,0,0,1,.41,12.64c-0.94,7.91-3.71,43.58-7.56,92.29l-26.63.05q-5-39-9.33-79.17-1.31-12.11-2.54-24.13a31.67,31.67,0,0,1,9.86-13.07C2606.2,1919.76,2622.51,1920.67,2628.12,1929.62Z" transform="translate(-2222.97 -1345.44)"/><path class="cls-4" d="M2496.89,1929.62c-1.95,3.11-2.78,7.46-3.17,9.48a40.89,40.89,0,0,0-.41,12.64c0.94,7.91,3.71,43.58,7.56,92.29l26.63,0.05q5-39,9.33-79.17,1.31-12.11,2.54-24.13a31.67,31.67,0,0,0-9.86-13.07C2518.81,1919.76,2502.5,1920.67,2496.89,1929.62Z" transform="translate(-2222.97 -1345.44)"/><path class="cls-5" d="M2501.89,2075a2.39,2.39,0,0,1-1.67-.61,1.63,1.63,0,0,1-.35-0.61c-0.46-1.32,0-4.9,0-5.29-0.36-4.48-.41-8.33-0.35-11.41a40.64,40.64,0,0,1,1.65-8.33,3.19,3.19,0,0,1,.82-1.48,3.6,3.6,0,0,1,1.41-.8c1.46-.41,2.72.52,4.35,1.14a14.47,14.47,0,0,0,6.24.68,26.93,26.93,0,0,0,5.53-1c2-.48,3.56-1,4.71-1.37a3.73,3.73,0,0,1,2.12.46,4,4,0,0,1,1.65,2.28c1.18,3.4.62,12.11,0.59,12.55l0.24,6.62,0.35,4.91a4.58,4.58,0,0,1-1.06,1.29,5.24,5.24,0,0,1-3.45,1.14l-10.67.19C2507.65,2075.21,2503,2075.05,2501.89,2075Z" transform="translate(-2222.97 -1345.44)"/><path class="cls-6" d="M2623.12,2075a2.39,2.39,0,0,0,1.67-.61,1.63,1.63,0,0,0,.35-0.61c0.46-1.32,0-4.9,0-5.29,0.36-4.48.41-8.33,0.35-11.41a40.64,40.64,0,0,0-1.65-8.33,3.19,3.19,0,0,0-.82-1.48,3.6,3.6,0,0,0-1.41-.8c-1.46-.41-2.72.52-4.35,1.14a14.47,14.47,0,0,1-6.24.68,26.93,26.93,0,0,1-5.53-1c-2-.48-3.56-1-4.71-1.37a3.73,3.73,0,0,0-2.12.46,4,4,0,0,0-1.65,2.28c-1.18,3.4-.62,12.11-0.59,12.55l-0.24,6.62-0.35,4.91a4.58,4.58,0,0,0,1.06,1.29,5.24,5.24,0,0,0,3.45,1.14l10.67,0.19C2617.36,2075.21,2622,2075.05,2623.12,2075Z" transform="translate(-2222.97 -1345.44)"/><rect class="cls-7" x="242.45" y="292.58" width="248.29" height="178.27"/><rect class="cls-8" x="265.66" y="373.75" width="163.84" height="5.99" rx="1.3" ry="1.3"/><rect class="cls-9" x="265.66" y="351.61" width="128.42" height="5.99" rx="1.3" ry="1.3"/><rect class="cls-10" x="265.66" y="402.92" width="54.96" height="5.99" rx="1.3" ry="1.3"/><rect class="cls-11" x="265.66" y="425.06" width="101.07" height="5.99" rx="1.3" ry="1.3"/><rect class="cls-12" x="265.66" y="307.85" width="60.43" height="5.99" rx="1.3" ry="1.3"/><rect class="cls-13" x="331.49" y="307.85" width="108.23" height="5.99" rx="1.3" ry="1.3"/><rect class="cls-14" x="265.66" y="315.66" width="60.43" height="5.99" rx="1.3" ry="1.3"/><rect class="cls-15" x="331.49" y="315.66" width="20.19" height="5.99" rx="1.3" ry="1.3"/><rect class="cls-16" x="265.66" y="329.73" width="60.43" height="5.99" rx="1.3" ry="1.3"/><rect class="cls-17" x="331.49" y="329.73" width="80.29" height="5.99" rx="1.3" ry="1.3"/><rect class="cls-18" x="265.66" y="359.42" width="20.19" height="5.99" rx="1.3" ry="1.3"/><rect class="cls-19" x="290.83" y="359.42" width="20.19" height="5.99" rx="1.3" ry="1.3"/><rect class="cls-20" x="316.39" y="359.42" width="20.19" height="5.99" rx="1.3" ry="1.3"/><rect class="cls-21" x="341.96" y="359.42" width="20.19" height="5.99" rx="1.3" ry="1.3"/><rect class="cls-22" x="367.57" y="359.42" width="87.26" height="5.99" rx="1.3" ry="1.3"/><rect class="cls-23" x="265.66" y="381.48" width="33.73" height="5.99" rx="1.3" ry="1.3"/><rect class="cls-24" x="304.79" y="381.48" width="94.16" height="5.99" rx="1.3" ry="1.3"/><rect class="cls-25" x="265.66" y="389.2" width="33.73" height="5.99" rx="1.3" ry="1.3"/><rect class="cls-26" x="304.79" y="389.2" width="151.21" height="5.99" rx="1.3" ry="1.3"/><rect class="cls-27" x="265.66" y="433.14" width="32.43" height="5.99" rx="1.3" ry="1.3"/><rect class="cls-28" x="303.59" y="433.14" width="20.19" height="5.99" rx="1.3" ry="1.3"/><rect class="cls-29" x="289.22" y="441" width="20.19" height="5.99" rx="1.3" ry="1.3"/><rect class="cls-30" x="276.39" y="441" width="7.42" height="5.99" rx="1.3" ry="1.3"/><rect class="cls-31" x="285.84" y="448.85" width="38.81" height="5.99" rx="1.3" ry="1.3"/><rect class="cls-32" x="330.2" y="448.85" width="12.76" height="5.99" rx="1.3" ry="1.3"/><rect class="cls-33" x="265.66" y="465.44" width="149.19" height="5.99" rx="1.3" ry="1.3"/><rect class="cls-34" x="265.66" y="473.38" width="16.21" height="5.99" rx="1.3" ry="1.3"/><rect class="cls-35" x="287.18" y="473.38" width="88.95" height="5.99" rx="1.3" ry="1.3"/><rect class="cls-36" x="381.54" y="473.38" width="24.49" height="5.99" rx="1.3" ry="1.3"/><rect class="cls-37" x="265.66" y="410.08" width="32.43" height="5.99" rx="1.3" ry="1.3"/><rect class="cls-38" x="303.59" y="410.08" width="38" height="5.99" rx="1.3" ry="1.3"/><rect class="cls-39" x="189.4" y="292.58" width="53.06" height="178.27"/><path class="cls-40" d="M2717.76,1829.77H2408.32a9.45,9.45,0,0,1-9.44-9.44V1634a9.45,9.45,0,0,1,9.44-9.44h309.43a9.45,9.45,0,0,1,9.44,9.44v186.36A9.45,9.45,0,0,1,2717.76,1829.77Zm-305.39-13.48h301.34V1638H2412.37v178.27Z" transform="translate(-2222.97 -1345.44)"/><polygon class="cls-41" points="86.26 729.9 77.87 521.95 96 520.02 96 729.9 86.26 729.9"/><polygon class="cls-42" points="582.02 729.9 590.26 521.97 572 520.02 572 729.9 582.02 729.9"/><rect class="cls-43" x="35.48" y="509.9" width="600.91" height="13.93" rx="3.48" ry="3.48"/><path class="cls-44" d="M2562.51,1622.47c3.84,0,18.52,1.23,28.32,12.64,6.34,7.38,8.15,16.26,9.1,20.9a56.44,56.44,0,0,1,1,15,6.7,6.7,0,0,1,5.65-2.44,6.41,6.41,0,0,1,4.3,2.53c1.15,10-1.18,18.09-6.07,20.14a7.11,7.11,0,0,1-3.2.51c0,2.42-.24,15-9.89,23.15a26.43,26.43,0,0,1-9,4.94c0.67,7.79.79,16.54,1.46,24.33-2.13,1.07-4.22,1.21-7.36,2a53,53,0,0,1-14.33,1.47m0-125.18c-3.84,0-18.52,1.23-28.32,12.64-6.34,7.38-8.15,16.26-9.1,20.9a56.44,56.44,0,0,0-1,15,6.7,6.7,0,0,0-5.65-2.44,6.41,6.41,0,0,0-4.3,2.53c-1.15,10,1.18,18.09,6.07,20.14a7.11,7.11,0,0,0,3.2.51c0,2.42.24,15,9.89,23.15a26.43,26.43,0,0,0,9,4.94c-0.67,7.79-.79,16.54-1.46,24.33,2.13,1.07,4.22,1.21,7.36,2a53,53,0,0,0,14.33,1.47" transform="translate(-2222.97 -1345.44)"/><path class="cls-45" d="M2562.67,1727.13A86,86,0,0,0,2580,1726a77.75,77.75,0,0,0,10.62-2.7,82.64,82.64,0,0,0,6.91-13.48c5.56-13.86,5.88-25.64,6.07-35.73,0.21-11.37.36-19.9-3.71-30.34a59.61,59.61,0,0,0-9.1-15.67,20.5,20.5,0,0,0-9.78-16c-5.14-.56-20.26-1.87-33,2.19-7.33,2.33-10.33,5.3-12,7.58a18,18,0,0,0-2.87,6.4,56.9,56.9,0,0,0-8.6,16.35c-1,3-2.41,8.18-2.19,28.82,0.14,13.23.86,23.14,3.71,34,1.33,5.08,3.16,10.56,8.09,14.16,2.47,1.8,4.72,2.41,9.1,3.54C2550.58,1727,2556.37,1727.08,2562.67,1727.13Z" transform="translate(-2222.97 -1345.44)"/><path class="cls-46" d="M2755.32,1847h-12.25V1822h12.25a10.35,10.35,0,0,1,10.34,10.34v4.38A10.35,10.35,0,0,1,2755.32,1847Zm-7.53-4.72h7.53a5.62,5.62,0,0,0,5.62-5.62v-4.38a5.62,5.62,0,0,0-5.62-5.62h-7.53v15.62Z" transform="translate(-2222.97 -1345.44)"/><path class="cls-47" d="M496.73,473.72h34.61a0,0,0,0,1,0,0v23.63a13,13,0,0,1-13,13h-8.61a13,13,0,0,1-13-13V473.72A0,0,0,0,1,496.73,473.72Z"/><path class="cls-48" d="M2735.23,1817.28l-3-2.75a4.54,4.54,0,0,0,1.49-3c0-.36-0.31-1.08-2-4.18l-0.86-1.54c-1.17-2.08-1.57-2.79-1.67-4a8.82,8.82,0,0,1,2.51-6.43l3.07,2.63a5,5,0,0,0-1.55,3.47c0,0.33.14,0.55,1.16,2.38l0.87,1.56c2.14,3.86,2.52,4.77,2.54,6.09A8.35,8.35,0,0,1,2735.23,1817.28Z" transform="translate(-2222.97 -1345.44)"/><path class="cls-49" d="M2742.46,1817.28l-3-2.75a4.54,4.54,0,0,0,1.49-3c0-.36-0.31-1.08-2-4.18l-0.86-1.54c-1.17-2.08-1.57-2.79-1.67-4a8.82,8.82,0,0,1,2.51-6.43L2742,1798a5,5,0,0,0-1.55,3.47c0,0.33.14,0.55,1.16,2.38l0.87,1.56c2.14,3.86,2.52,4.77,2.54,6.09A8.35,8.35,0,0,1,2742.46,1817.28Z" transform="translate(-2222.97 -1345.44)"/><polygon class="cls-50" points="241.47 479.19 238.91 499.84 237.57 509.9 265.38 509.79 268.91 481.64 241.47 479.19"/><polygon class="cls-51" points="437.6 479.19 440.15 499.84 441.5 509.9 413.69 509.79 410.15 481.64 437.6 479.19"/><path class="cls-52" d="M2562.74,1744.68c3.11,0.16,6.28.21,9.83,0.1,4.25-.12,8.11-0.46,11.71-0.9a67.55,67.55,0,0,1,17.26,3.26c4,1.33,7.48,2.94,14.81,5.06,4.26,1.23,4.92,1.22,6.73,1.8,8.25,2.64,13.35,8.95,16.74,13.15,7.13,8.83,17.21,28.57,25.62,56l-32.7,10.36c-2.73,29.63-5.47,58.9-8.2,88.9H2563m-0.23-177.66c-3.11.16-6.51,0.21-10.06,0.1-4.25-.12-8.22-0.46-11.83-0.9a68.09,68.09,0,0,0-17.32,3.26c-4,1.33-7.51,2.94-14.84,5.06-4.26,1.23-4.94,1.22-6.75,1.8-8.25,2.64-13.35,8.95-16.74,13.15-7.13,8.83-17.21,28.57-25.62,56l32.7,10.36c2.73,29.63,5.47,58.9,8.2,88.9H2563" transform="translate(-2222.97 -1345.44)"/><path class="cls-53" d="M2884,2074.34H2223c75.11,39.53,136.63,47.7,179.64,47.56,71.47-.24,95.24-23.45,189-22.5,64.21,0.65,74.33,11.76,130.49,10.5C2791.51,2108.35,2847.51,2089.79,2884,2074.34Z" transform="translate(-2222.97 -1345.44)"/><polygon class="cls-54" points="298.62 729.9 307.06 595.65 289 594.4 289 729.9 298.62 729.9"/><polygon class="cls-55" points="380.25 729.9 371.87 595.66 390 594.4 390 729.9 380.25 729.9"/><path class="cls-56" d="M2563,1770.34h44.7c4,1,14.39,3.31,22.92,12.61,12.82,14,11.11,31.48,10.79,34.28q-3,60.68-6.07,121.3a34.88,34.88,0,0,1-9,10.5,37.24,37.24,0,0,1-22.67,7.3H2563m0-186h-45.64c-4,1-14.39,3.31-22.92,12.61-12.82,14-11.11,31.48-10.79,34.28q3,60.68,6.07,121.3a35.93,35.93,0,0,0,9.94,11,37.62,37.62,0,0,0,21.74,6.8H2563" transform="translate(-2222.97 -1345.44)"/></svg>