<svg id="Ebene_1" data-name="Ebene 1" xmlns="http://www.w3.org/2000/svg" xmlns:xlink="http://www.w3.org/1999/xlink" viewBox="0 0 276.84 481.93"><defs><style>.cls-1{fill:none;}.cls-2{fill:url(#Unbenannter_Verlauf_18);}.cls-3{fill:url(#Unbenannter_Verlauf_10);}.cls-4{fill:url(#Unbenannter_Verlauf_4);}.cls-5{fill:url(#Unbenannter_Verlauf_4-2);}.cls-6{fill:url(#Unbenannter_Verlauf_18-2);}.cls-7{fill:url(#Unbenannter_Verlauf_4-3);}.cls-8{fill:url(#Unbenannter_Verlauf_4-4);}.cls-9{fill:url(#Unbenannter_Verlauf_4-5);}.cls-10{fill:url(#Unbenannter_Verlauf_4-6);}.cls-11{fill:url(#Unbenannter_Verlauf_18-3);}.cls-12{fill:url(#Unbenannter_Verlauf_4-7);}.cls-13{fill:url(#Unbenannter_Verlauf_26);}.cls-14{fill:url(#Unbenannter_Verlauf_18-4);}.cls-15{fill:url(#Unbenannter_Verlauf_4-8);}.cls-16{fill:url(#Unbenannter_Verlauf_18-5);}.cls-17{fill:url(#Unbenannter_Verlauf_4-9);}.cls-18{fill:url(#Unbenannter_Verlauf_10-2);}</style><linearGradient id="Unbenannter_Verlauf_18" x1="1530.56" y1="994.99" x2="1569.46" y2="994.99" gradientUnits="userSpaceOnUse"><stop offset="0" stop-color="#facea3"/><stop offset="1" stop-color="#f6ae65"/></linearGradient><linearGradient id="Unbenannter_Verlauf_10" x1="1526.22" y1="1067.42" x2="1604.72" y2="1067.42" gradientUnits="userSpaceOnUse"><stop offset="0" stop-color="#f2f2f2"/><stop offset="0.53" stop-color="#e9e9e9"/><stop offset="0.99" stop-color="#dcdcdc"/></linearGradient><linearGradient id="Unbenannter_Verlauf_4" x1="1616.12" y1="1384.16" x2="1664.77" y2="1384.16" gradientUnits="userSpaceOnUse"><stop offset="0" stop-color="#31b1e7"/><stop offset="0.5" stop-color="#268cf5"/><stop offset="1" stop-color="#2f58f7"/></linearGradient><linearGradient id="Unbenannter_Verlauf_4-2" x1="1419.95" y1="1389.14" x2="1452.32" y2="1389.14" xlink:href="#Unbenannter_Verlauf_4"/><linearGradient id="Unbenannter_Verlauf_18-2" x1="1664.64" y1="1147.25" x2="1696.8" y2="1147.25" xlink:href="#Unbenannter_Verlauf_18"/><linearGradient id="Unbenannter_Verlauf_4-3" x1="1569.02" y1="1086.17" x2="1676.72" y2="1086.17" xlink:href="#Unbenannter_Verlauf_4"/><linearGradient id="Unbenannter_Verlauf_4-4" x1="1553.72" y1="1062.8" x2="1586.89" y2="1062.8" xlink:href="#Unbenannter_Verlauf_4"/><linearGradient id="Unbenannter_Verlauf_4-5" x1="1429.49" y1="1259.33" x2="1644.47" y2="1259.33" xlink:href="#Unbenannter_Verlauf_4"/><linearGradient id="Unbenannter_Verlauf_4-6" x1="1487.7" y1="1091.59" x2="1570.63" y2="1091.59" xlink:href="#Unbenannter_Verlauf_4"/><linearGradient id="Unbenannter_Verlauf_18-3" x1="1520.91" y1="962.62" x2="1581.18" y2="962.62" xlink:href="#Unbenannter_Verlauf_18"/><linearGradient id="Unbenannter_Verlauf_4-7" x1="1570.39" y1="998.61" x2="1570.39" y2="998.61" xlink:href="#Unbenannter_Verlauf_4"/><linearGradient id="Unbenannter_Verlauf_26" x1="1526.49" y1="942.16" x2="1576.64" y2="942.16" gradientUnits="userSpaceOnUse"><stop offset="0" stop-color="#bd9660"/><stop offset="1" stop-color="#705e44"/></linearGradient><linearGradient id="Unbenannter_Verlauf_18-4" x1="1579.22" y1="928.43" x2="1579.22" y2="928.43" xlink:href="#Unbenannter_Verlauf_18"/><linearGradient id="Unbenannter_Verlauf_4-8" x1="1492.43" y1="1042.01" x2="1559.85" y2="1042.01" xlink:href="#Unbenannter_Verlauf_4"/><linearGradient id="Unbenannter_Verlauf_18-5" x1="1541.46" y1="1037.93" x2="1566.78" y2="1037.93" xlink:href="#Unbenannter_Verlauf_18"/><linearGradient id="Unbenannter_Verlauf_4-9" x1="1550.54" y1="1026.11" x2="1563.85" y2="1026.11" xlink:href="#Unbenannter_Verlauf_4"/><linearGradient id="Unbenannter_Verlauf_10-2" x1="133.72" y1="95.45" x2="140.75" y2="95.45" xlink:href="#Unbenannter_Verlauf_10"/></defs><title>bond</title><path class="cls-1" d="M1556.72,1023.59a10.15,10.15,0,0,0-4-.25c-1,.15-4.18.61-5.62,3.25a6.32,6.32,0,0,0-.5,4.38,4.7,4.7,0,0,0-.5,7.5,14.25,14.25,0,0,0,.13,3.63,15.79,15.79,0,0,0,5.63,9.38c2,1.7,4,3.35,6.5,3.13,2.75-.25,4.48-2.59,6.25-5a28.56,28.56,0,0,0,5.13-15,32.35,32.35,0,0,0-.5-8C1564.61,1025.47,1560.47,1024.5,1556.72,1023.59Z" transform="translate(-1419.95 -921.34)"/><path class="cls-2" d="M1568.35,989.22l1.11,11.37a14.81,14.81,0,0,1-6.93,4.75c-5.18,1.62-9.81-.66-13.74-2.62a47.1,47.1,0,0,1-18.24-17l5-1.67Z" transform="translate(-1419.95 -921.34)"/><path class="cls-3" d="M1530.35,985.41a117.85,117.85,0,0,0,18.13,14.52c2.32,1.43,5.28,3.06,8.83,2.58a11.64,11.64,0,0,0,4.92-2,17.05,17.05,0,0,0,6.44-8.14l0.75,7.09a80.32,80.32,0,0,1,10.56,10.62c8.82,10.72,17.25,26.48,22,76.25,1.23,12.87,2.49,30.35,2.75,51.25a70.45,70.45,0,0,1-26.5,10.75c-21.24,3.84-38.18-3.4-44.5-6.5a268,268,0,0,0-7.5-138.5l2.75-13.5Z" transform="translate(-1419.95 -921.34)"/><path class="cls-4" d="M1619.15,1371.81a80.44,80.44,0,0,0-3,22.07,16.46,16.46,0,0,0,8,2.12,15.33,15.33,0,0,0,2.12-.15l0.61-1.82a7.71,7.71,0,0,1,2.35-.15c2.25,0.21,3.36,1.36,6.22,2.58,0,0,.82.35,3.34,1.14,3.56,1.11,12.28,1.24,23.58,0a2.22,2.22,0,0,0,.91-4.32,6.15,6.15,0,0,0-1-3.64,6.62,6.62,0,0,0-2.88-2.2,47.87,47.87,0,0,0-7.28-2.81,45.83,45.83,0,0,1-11-14.79Z" transform="translate(-1419.95 -921.34)"/><path class="cls-5" d="M1450.47,1375.18a59.64,59.64,0,0,1,1.83,12.83c0,0.72,0,2.42,0,4.25,0,2.79-.1,5.09-0.17,6.67a11.18,11.18,0,0,1-7.33,3.75c-12.69,1.52-21.33-.33-21.33-0.33-1.35-.29-2.43-0.57-3.08-0.75a12.74,12.74,0,0,1-.08-6.25,14.75,14.75,0,0,1,2.42-4.83c3.11-4.59,5-5,6.83-8.08a15.58,15.58,0,0,0,2.08-7.42Z" transform="translate(-1419.95 -921.34)"/><path class="cls-6" d="M1674.31,1125.84a74.08,74.08,0,0,1,20.5,21c0.51,1.1,3.34,7.48,1.21,13.33a17.54,17.54,0,0,1-2,3.83,15.76,15.76,0,0,1-4.83,4.33c-3.48,1.71-9.71-4.1-11.33-5.67,3.75-5.83,2.8-9.3,2.33-10.5-0.8-2.07-2.33-3-6.83-6.33-3.77-2.79-6.76-5.14-8.67-6.67Z" transform="translate(-1419.95 -921.34)"/><path class="cls-7" d="M1569.37,999.49a80.77,80.77,0,0,0,19.35,5.6,20.85,20.85,0,0,1,3.75,2.25c2.21,1.67,4.86,4.37,7.5,10.25,4.21,9.38,5.41,20.21,5.75,24,13.14,11.66,20.58,22.37,25,30.25,1.56,2.78,1.92,3.74,3.75,6.75,5.63,9.25,11.23,15,22,25.5,8.18,8,15.1,14.62,20.25,19.5a18.28,18.28,0,0,1-3.25,10.5,18.82,18.82,0,0,1-12.25,7.5,145.43,145.43,0,0,1-19.25-13,154.72,154.72,0,0,1-14-12.75,161,161,0,0,1-15.5-18.5,4.92,4.92,0,0,0-3.25,5c0.08,4.77,3.06,30.11,3.5,34.25,0.8,7.48.58,13.84,0.25,23.5-0.17,5.1-.47,9.44-0.75,12.75-10.9-25.53-14.49-46.51-15.75-61-1-12-.14-15.6-2-32-3.13-27.62-4.69-41.43-12.25-50.25-4.1-4.79-10.92-10.34-12.75-20.5A29.51,29.51,0,0,1,1569.37,999.49Z" transform="translate(-1419.95 -921.34)"/><path class="cls-8" d="M1563.47,1007.68c13.87,53.12,22.81,92.23,23.33,100,0.13,2,.5,7-2.5,11.33a15.14,15.14,0,0,1-4.33,4.17c-3.76-2-8.13-5.22-10-10.33a16.21,16.21,0,0,1-.83-7.33c0.62-6.38-2.85-31.86-15.42-97.42l4.92-5.67Z" transform="translate(-1419.95 -921.34)"/><path class="cls-9" d="M1557.08,1201.63a7.72,7.72,0,0,1,2,1.65l32,29.68q0.89,2.68,1.85,5.38a308.7,308.7,0,0,0,19.53,44,341.63,341.63,0,0,0,5.69,89.8,18.4,18.4,0,0,0,23.07-.77c0.29-3.66,3.47-44.48,3.23-74a118.6,118.6,0,0,0-3.38-29.22,112.5,112.5,0,0,0-4.61-14.3,251.34,251.34,0,0,0-36.12-118.66,162.07,162.07,0,0,1-29.39,6.1,157.76,157.76,0,0,1-34.45.15,151.21,151.21,0,0,1-26.6-5.38,493.07,493.07,0,0,1-14,50.9c-2.54,7.66-3.8,10.86-6,17.61a385.83,385.83,0,0,0-13.38,54.9A322.16,322.16,0,0,0,1429.49,1372a24.32,24.32,0,0,0,25.83,10.84,694.43,694.43,0,0,1,29.52-70.12c13.82-28.33,27.5-51.39,42.44-76.58,8-13.48,14.86-24.61,19.76-32.45a6.35,6.35,0,0,1,1.46-1.61,7.44,7.44,0,0,1,4.15-1.46A8,8,0,0,1,1557.08,1201.63Z" transform="translate(-1419.95 -921.34)"/><path class="cls-10" d="M1489.47,1181.84c-4.36-7.32,0-16.67,6-31,4.68-11.12,11.55-28,19.5-49.75a409.71,409.71,0,0,1-13.75-44.5c-2.73-11-4.85-21.57-6.5-31.5a15.3,15.3,0,0,1-.25-5.75c0.18-1.16.94-5.26,6.25-10.5,7.15-7.05,16.35-10,21-11.25l8.5-12.25a34.91,34.91,0,0,0,5.5,10.25,36.5,36.5,0,0,0,18.08,12.25c0.76,2.42,1.81,5.85,3,10,1.37,4.78,5.31,18.9,8.17,34,4.6,24.33,7.55,39.37,4.25,57.75-1.57,8.76-3.32,11.88-8.75,27-5.06,14.09-11.95,34.82-18.75,61.25a180.05,180.05,0,0,1-31.75-6C1493.27,1187.1,1490.6,1183.74,1489.47,1181.84Z" transform="translate(-1419.95 -921.34)"/><path class="cls-11" d="M1551.55,928.34c3.76,0,15.17.1,19.86,7.67,1.67,2.7,2.09,6.71,2.92,14.73,0.43,4.13.57,7.59,0.62,10a4,4,0,0,1,3.44-1.63,3.89,3.89,0,0,1,2.62,1.69c0.7,6.67-.72,12.08-3.69,13.45a4,4,0,0,1-1.95.34c0,1.62-.14,10-6,15.46a19.87,19.87,0,0,1-1.83,1.46,28.67,28.67,0,0,1-8.36,4.06,25.14,25.14,0,0,1-7.32,1.32,25.62,25.62,0,0,1-12.25-3.06,21.33,21.33,0,0,1-5.82-3.78c-5.29-5.12-5.61-12.85-5.59-15.63a4.8,4.8,0,0,1-2.38-.16c-4.3-1.48-6.38-9.85-3.69-13.45a4,4,0,0,1,2.62-1.69,4.3,4.3,0,0,1,3.44,1.63,89.88,89.88,0,0,1,.62-10c1-8.34,1.47-12.51,3.88-15.81C1537.53,928.25,1547.2,928.32,1551.55,928.34Z" transform="translate(-1419.95 -921.34)"/><path class="cls-12" d="M1570.39,998.61" transform="translate(-1419.95 -921.34)"/><path class="cls-13" d="M1575.09,961.92c0.49,0,1.07-4.15,1.16-4.77a44.52,44.52,0,0,0,0-11.82c-0.75-5.9-1.25-9.76-4.11-11.7a6.38,6.38,0,0,0-2.31-1,15.36,15.36,0,0,0-3-5.53c-3.31-3.82-7.63-4.58-11.53-5.21-3.67-.59-10.92-1.76-18.05,2.66a21.18,21.18,0,0,0-7.72,8,25.52,25.52,0,0,0-2.61,8.19,34.14,34.14,0,0,0-.4,6.38,80,80,0,0,0,1.11,9.68A5.68,5.68,0,0,0,1528,958h0a4.28,4.28,0,0,0,.14,1.54,5.8,5.8,0,0,0,.54,1.46c0.66,1.31.94,2,1.1,1.94,0.43-.08,0-3.08.18-5.64a19.8,19.8,0,0,1,3.3-9.46l-2-6.7a9.93,9.93,0,0,1,3.61-5.74c0.82-.59,2.19-1.32,5.51-1.49a27.17,27.17,0,0,1,11,1.81,29.82,29.82,0,0,1,6.92-1.91,29.51,29.51,0,0,1,8.73,0,10,10,0,0,1,3.31,4.79,11,11,0,0,1-.8,8.19,7.44,7.44,0,0,1,3.31,2.55,8.23,8.23,0,0,1,1.54,4.52C1574.44,957.76,1574.61,961.89,1575.09,961.92Z" transform="translate(-1419.95 -921.34)"/><path class="cls-14" d="M1579.22,928.43" transform="translate(-1419.95 -921.34)"/><path class="cls-15" d="M1497.47,1048.68a75.31,75.31,0,0,0,10,17.67,72.67,72.67,0,0,0,7.67,8.5,32.58,32.58,0,0,0,5.83,1.5,37.59,37.59,0,0,0,13.67-.67,56.36,56.36,0,0,0,19.17-8.17,26.38,26.38,0,0,0,4-27l-15-.5c-4.3,2.61-7.5,4.62-9.67,6s-4,2.56-5.67,1.83a4,4,0,0,1-2-2.5,55.74,55.74,0,0,0,2-13.17c0.2-6.57.33-10.86-2.33-15.17-3.44-5.56-9.31-7.54-11.67-8.33a25.7,25.7,0,0,0-11-1.17,26.27,26.27,0,0,0-6.67,7.83,28.19,28.19,0,0,0-3.17,10.33C1491.64,1034.23,1494.34,1040.93,1497.47,1048.68Z" transform="translate(-1419.95 -921.34)"/><path class="cls-16" d="M1553.72,1022.59a10.74,10.74,0,0,0-4-.25c-1,.15-4.18.61-5.62,3.25a6.32,6.32,0,0,0-.5,4.38,4.7,4.7,0,0,0-.5,7.5,14.25,14.25,0,0,0,.13,3.63,15.79,15.79,0,0,0,5.63,9.38c2,1.7,4,3.35,6.5,3.13,2.75-.25,4.48-2.59,6.25-5a26.89,26.89,0,0,0,5.13-15c0.12-3.6.18-5.4-1-7S1560.81,1024.05,1553.72,1022.59Z" transform="translate(-1419.95 -921.34)"/><path class="cls-17" d="M1557.19,1009a6.35,6.35,0,0,1,.93,0,9.09,9.09,0,0,1,1.81.38,9.48,9.48,0,0,1,3.79,2.5l0.12,7.57a14.88,14.88,0,0,0-.6,5.69,3.73,3.73,0,0,0-2.09.92,3.9,3.9,0,0,0-1.19,2.52v13.25a1.76,1.76,0,0,1-1,.87,6.32,6.32,0,0,1-1.11.48,1.62,1.62,0,0,1-.75.09m0-34.32a6.44,6.44,0,0,0-.93,0,9.09,9.09,0,0,0-1.81.38,9.48,9.48,0,0,0-3.79,2.5l-0.12,7.57a14.88,14.88,0,0,1,.6,5.69,3.27,3.27,0,0,1,2.84,3.44v13.25a2.56,2.56,0,0,0,1.17.87,8.4,8.4,0,0,0,1.22.48,1.9,1.9,0,0,0,.8.09" transform="translate(-1419.95 -921.34)"/><circle class="cls-18" cx="137.24" cy="95.45" r="3.52"/></svg>