<svg id="Ebene_1" data-name="Ebene 1" xmlns="http://www.w3.org/2000/svg" viewBox="0 0 225.2 138.11"><defs><style>.cls-1{fill:#f2f2f2;}</style></defs><title>cloud</title><path class="cls-1" d="M2542,1468.88L2685.3,1469c2.55-.25,24.1-2.75,36.57-22.58,1.26-2,12.37-20.36,4.72-42.14-0.86-2.44-7.5-20.42-26.46-28.48a47.32,47.32,0,0,0-19.21-3.71c-10.29-25.94-35.37-42.45-61.69-41.12-24.26,1.22-44.88,17.36-53.43,36.91a57.66,57.66,0,0,0-4.72,21.4c-24.17-8.35-49.53,5.51-55.62,26.8C2499,1438.58,2515.26,1465,2542,1468.88Z" transform="translate(-2504.06 -1330.94)"/></svg>