<svg id="Ebene_1" data-name="Ebene 1" xmlns="http://www.w3.org/2000/svg" viewBox="0 0 344.04 349.27"><defs><style>.cls-1,.cls-3{fill:#2575fc;}.cls-1,.cls-2{stroke:#2575fc;stroke-miterlimit:10;stroke-width:10px;}.cls-2{fill:none;}</style></defs><title>cloud_computing</title><path class="cls-1" d="M943.25,572.25l212.5,0.25c3.79-.37,35.75-4.08,54.25-33.5,1.87-3,18.35-30.2,7-62.5-1.27-3.62-11.13-30.28-39.25-42.25a70.19,70.19,0,0,0-28.5-5.5c-15.26-38.47-52.46-63-91.5-61-36,1.81-66.57,25.75-79.25,54.75a85.52,85.52,0,0,0-7,31.75C935.64,441.86,898,462.42,889,494,879.47,527.31,903.53,566.56,943.25,572.25Z" transform="translate(-881.92 -362.64)"/><polyline class="cls-2" points="133.08 210.36 133.08 287.36 88.08 287.36"/><line class="cls-2" x1="173.08" y1="210.36" x2="173.08" y2="326.36"/><polyline class="cls-2" points="211.08 210.36 211.08 326.36 257.08 326.36"/><circle class="cls-3" cx="261.48" cy="325.78" r="22.91"/><circle class="cls-3" cx="172.02" cy="326.36" r="22.91"/><circle class="cls-3" cx="88.08" cy="287.36" r="22.91"/></svg>