<svg id="Ebene_1" data-name="Ebene 1" xmlns="http://www.w3.org/2000/svg" xmlns:xlink="http://www.w3.org/1999/xlink" viewBox="0 0 40.17 28.78"><defs><style>.cls-1{fill:url(#Unbenannter_Verlauf_33);}</style><linearGradient id="Unbenannter_Verlauf_33" x1="2269.92" y1="1020" x2="2310.08" y2="1020" gradientUnits="userSpaceOnUse"><stop offset="0" stop-color="#31b1e7"/><stop offset="0.5" stop-color="#268cf5"/><stop offset="1" stop-color="#2f58f7"/></linearGradient></defs><title>logo_small</title><path class="cls-1" d="M2303.88,1034.39h-27.75a6.21,6.21,0,0,1-6.21-6.21v-3.46a6.21,6.21,0,0,1,6.21-6.21h3.93a4,4,0,0,0,0-7.9h-7.64v-5h7.64a9,9,0,0,1,0,17.9h-3.93a1.21,1.21,0,0,0-1.21,1.21v3.46a1.21,1.21,0,0,0,1.21,1.21h27.75a1.21,1.21,0,0,0,1.21-1.21v-3.46a1.21,1.21,0,0,0-1.21-1.21h-3.93a9,9,0,0,1,0-17.9h7.64v5h-7.64a4,4,0,0,0,0,7.9h3.93a6.21,6.21,0,0,1,6.21,6.21v3.46A6.21,6.21,0,0,1,2303.88,1034.39Z" transform="translate(-2269.92 -1005.61)"/></svg>