<svg id="Ebene_1" data-name="Ebene 1" xmlns="http://www.w3.org/2000/svg" xmlns:xlink="http://www.w3.org/1999/xlink" viewBox="0 0 588.68 386.27"><defs><style>.cls-1,.cls-3,.cls-4,.cls-5{fill:none;}.cls-1{stroke:#dcdcdc;}.cls-1,.cls-3,.cls-4,.cls-5,.cls-7{stroke-miterlimit:10;stroke-width:10px;}.cls-2{fill:#dcdcdc;}.cls-3{stroke:url(#Unbenannter_Verlauf_4);}.cls-4{stroke:url(#Unbenannter_Verlauf_4-2);}.cls-5{stroke:url(#Unbenannter_Verlauf_4-3);}.cls-6{fill:#2575fc;}.cls-7{fill:url(#Unbenannter_Verlauf_4-4);stroke:url(#Unbenannter_Verlauf_4-5);}</style><linearGradient id="Unbenannter_Verlauf_4" x1="199.58" y1="288.36" x2="249.58" y2="288.36" gradientUnits="userSpaceOnUse"><stop offset="0" stop-color="#31b1e7"/><stop offset="0.5" stop-color="#268cf5"/><stop offset="1" stop-color="#2f58f7"/></linearGradient><linearGradient id="Unbenannter_Verlauf_4-2" x1="279.58" y1="305.36" x2="289.58" y2="305.36" xlink:href="#Unbenannter_Verlauf_4"/><linearGradient id="Unbenannter_Verlauf_4-3" x1="317.58" y1="307.86" x2="368.58" y2="307.86" xlink:href="#Unbenannter_Verlauf_4"/><linearGradient id="Unbenannter_Verlauf_4-4" x1="458.39" y1="982.41" x2="792.43" y2="982.41" xlink:href="#Unbenannter_Verlauf_4"/><linearGradient id="Unbenannter_Verlauf_4-5" x1="453.39" y1="982.41" x2="797.43" y2="982.41" xlink:href="#Unbenannter_Verlauf_4"/></defs><title>cloud_computing</title><polyline class="cls-1" points="498.58 215.36 498.58 270.36 529.58 270.36"/><circle class="cls-2" cx="469.34" cy="298.62" r="16.37"/><circle class="cls-2" cx="529.32" cy="270.76" r="16.37"/><path class="cls-2" d="M889.82,1053.18l-151.84.18c-2.71-.27-25.55-2.92-38.76-23.94-1.34-2.13-13.11-21.58-5-44.66,0.91-2.59,8-21.64,28-30.19a50.15,50.15,0,0,1,20.36-3.93c10.91-27.49,37.49-45,65.38-43.59,25.72,1.29,47.57,18.4,56.63,39.12a61.11,61.11,0,0,1,5,22.69c25.62-8.85,52.49,5.83,58.95,28.4C935.4,1021.07,918.21,1049.12,889.82,1053.18Z" transform="translate(-341.39 -837.98)"/><line class="cls-1" x1="468.58" y1="211.36" x2="468.58" y2="294.36"/><line class="cls-1" x1="119.58" y1="145.36" x2="119.58" y2="228.36"/><polyline class="cls-1" points="92.58 146.36 92.58 229.36 58.58 229.36"/><circle class="cls-2" cx="55.42" cy="229.21" r="16.37"/><circle class="cls-2" cx="119.34" cy="229.62" r="16.37"/><path class="cls-2" d="M539.82,984.18L388,984.36c-2.71-.27-25.55-2.92-38.76-23.94-1.34-2.13-13.11-21.58-5-44.66,0.91-2.59,8-21.64,28-30.19a50.15,50.15,0,0,1,20.36-3.93c10.91-27.49,37.49-45,65.38-43.59,25.72,1.29,47.57,18.4,56.63,39.12a61.11,61.11,0,0,1,5,22.69c25.62-8.85,52.49,5.83,58.95,28.4C585.4,952.07,568.21,980.12,539.82,984.18Z" transform="translate(-341.39 -837.98)"/><polyline class="cls-3" points="244.58 247.36 244.58 324.36 199.58 324.36"/><line class="cls-4" x1="284.58" y1="247.36" x2="284.58" y2="363.36"/><polyline class="cls-5" points="322.58 247.36 322.58 363.36 368.58 363.36"/><circle class="cls-6" cx="373.48" cy="362.78" r="22.91"/><circle class="cls-6" cx="284.02" cy="363.36" r="22.91"/><circle class="cls-6" cx="200.08" cy="324.36" r="22.91"/><path class="cls-7" d="M514.72,1084.59l212.5,0.25c3.79-.37,35.75-4.08,54.25-33.5,1.87-3,18.35-30.2,7-62.5-1.27-3.62-11.13-30.28-39.25-42.25a70.19,70.19,0,0,0-28.5-5.5c-15.26-38.47-52.46-63-91.5-61-36,1.81-66.57,25.75-79.25,54.75a85.52,85.52,0,0,0-7,31.75c-35.86-12.39-73.46,8.17-82.5,39.75C450.94,1039.65,475,1078.9,514.72,1084.59Z" transform="translate(-341.39 -837.98)"/></svg>