<svg id="Ebene_1" data-name="Ebene 1" xmlns="http://www.w3.org/2000/svg" xmlns:xlink="http://www.w3.org/1999/xlink" viewBox="0 0 566.96 342.73"><defs><style>.cls-1{fill:none;stroke:#dcdcdc;stroke-miterlimit:10;stroke-width:10px;}.cls-2{fill:#dcdcdc;}.cls-3{fill:url(#Unbenannter_Verlauf_4);}.cls-4{fill:#2575fc;}.cls-5{fill:url(#Unbenannter_Verlauf_4-2);}.cls-6{fill:url(#Unbenannter_Verlauf_4-3);}.cls-7{fill:url(#Unbenannter_Verlauf_4-4);}.cls-8{fill:url(#Unbenannter_Verlauf_4-5);}</style><linearGradient id="Unbenannter_Verlauf_4" x1="173.68" y1="128.09" x2="403.35" y2="128.09" gradientUnits="userSpaceOnUse"><stop offset="0" stop-color="#31b1e7"/><stop offset="0.5" stop-color="#268cf5"/><stop offset="1" stop-color="#2f58f7"/></linearGradient><linearGradient id="Unbenannter_Verlauf_4-2" x1="201.79" y1="126.84" x2="247.44" y2="126.84" xlink:href="#Unbenannter_Verlauf_4"/><linearGradient id="Unbenannter_Verlauf_4-3" x1="261.15" y1="181.78" x2="306.8" y2="181.78" xlink:href="#Unbenannter_Verlauf_4"/><linearGradient id="Unbenannter_Verlauf_4-4" x1="333.63" y1="112.22" x2="379.27" y2="112.22" xlink:href="#Unbenannter_Verlauf_4"/><linearGradient id="Unbenannter_Verlauf_4-5" x1="1541.97" y1="1042.84" x2="1832.8" y2="1042.84" xlink:href="#Unbenannter_Verlauf_4"/></defs><title>data_analytics</title><polyline class="cls-1" points="148.68 126.92 103.68 126.92 49.18 226.92 3.18 188.92"/><circle class="cls-2" cx="46.12" cy="221.59" r="22.82"/><circle class="cls-2" cx="102.87" cy="126.84" r="22.82"/><polyline class="cls-1" points="403.18 71.42 446.68 68.92 506.87 124.84 562.68 32.92"/><circle class="cls-2" cx="447.87" cy="67.34" r="22.82"/><circle class="cls-2" cx="506.87" cy="124.84" r="22.82"/><polyline class="cls-3" points="403.35 73.92 358.23 118.62 283.99 191.26 222.78 131.92 173.68 131.92 173.68 121.92 226.83 121.92 283.96 177.3 351.2 111.5 398.68 64.92"/><path class="cls-4" d="M1766.53,1154.49l76.71,77.37c10,5.35,22.13,4.1,30.22-3,9.38-8.22,11.58-22.76,4.65-34.2l-76-75.38Z" transform="translate(-1397.29 -897.42)"/><path class="cls-4" d="M1856.35,1240.16a32.82,32.82,0,0,1-15.47-3.89l-0.66-.35-80.76-81.46,42.6-42.21,80,79.3,0.32,0.53c8,13.26,5.62,30.7-5.63,40.55A30.89,30.89,0,0,1,1856.35,1240.16Zm-10.12-12.38c8,4,17.54,2.93,23.93-2.67,7.51-6.58,9.17-18.24,4-27.35l-72.06-71.43-28.46,28.19Z" transform="translate(-1397.29 -897.42)"/><circle class="cls-5" cx="224.62" cy="126.84" r="22.82"/><circle class="cls-6" cx="283.97" cy="181.78" r="22.82"/><circle class="cls-7" cx="356.45" cy="112.22" r="22.82"/><path class="cls-8" d="M1687.39,1188.25c-80.18,0-145.42-65.23-145.42-145.42s65.23-145.42,145.42-145.42,145.42,65.23,145.42,145.42S1767.57,1188.25,1687.39,1188.25Zm0-260.83a115.42,115.42,0,1,0,115.42,115.42A115.55,115.55,0,0,0,1687.39,927.42Z" transform="translate(-1397.29 -897.42)"/></svg>