<svg id="Ebene_1" data-name="Ebene 1" xmlns="http://www.w3.org/2000/svg" xmlns:xlink="http://www.w3.org/1999/xlink" viewBox="0 0 453.48 423.67"><defs><style>.cls-1,.cls-2,.cls-4,.cls-5{fill:none;}.cls-1{stroke:#dcdcdc;}.cls-1,.cls-2,.cls-3,.cls-4,.cls-5{stroke-miterlimit:10;stroke-width:10px;}.cls-2{stroke:url(#Unbenannter_Verlauf_4);}.cls-3{stroke:#2575fc;fill:url(#Unbenannter_Verlauf_4-2);}.cls-4{stroke:url(#Unbenannter_Verlauf_4-3);}.cls-5{stroke:url(#Unbenannter_Verlauf_4-4);}.cls-6{fill:url(#Unbenannter_Verlauf_4-5);}.cls-7{fill:url(#Unbenannter_Verlauf_4-6);}.cls-8{fill:url(#Unbenannter_Verlauf_4-7);}.cls-9{fill:url(#Unbenannter_Verlauf_4-8);}.cls-10{fill:url(#Unbenannter_Verlauf_4-9);}.cls-11{fill:url(#Unbenannter_Verlauf_4-10);}.cls-12{fill:#f2f2f2;}.cls-13{fill:#dcdcdc;}</style><linearGradient id="Unbenannter_Verlauf_4" x1="2765.97" y1="1049.94" x2="2900.44" y2="1049.94" gradientTransform="translate(-2716.88 -613) rotate(-4.48)" gradientUnits="userSpaceOnUse"><stop offset="0" stop-color="#31b1e7"/><stop offset="0.5" stop-color="#268cf5"/><stop offset="1" stop-color="#2f58f7"/></linearGradient><linearGradient id="Unbenannter_Verlauf_4-2" x1="2770.65" y1="1075.81" x2="2899.97" y2="1075.81" xlink:href="#Unbenannter_Verlauf_4"/><linearGradient id="Unbenannter_Verlauf_4-3" x1="2766.26" y1="1052.92" x2="3039.51" y2="1052.92" xlink:href="#Unbenannter_Verlauf_4"/><linearGradient id="Unbenannter_Verlauf_4-4" x1="2757.82" y1="988.73" x2="3043.55" y2="988.73" xlink:href="#Unbenannter_Verlauf_4"/><linearGradient id="Unbenannter_Verlauf_4-5" x1="2854.99" y1="924.3" x2="2944.96" y2="924.3" gradientTransform="translate(-9.62 -2.33)" xlink:href="#Unbenannter_Verlauf_4"/><linearGradient id="Unbenannter_Verlauf_4-6" x1="2984.33" y1="1051.89" x2="3074.3" y2="1051.89" gradientTransform="translate(-0.05 -12.83)" xlink:href="#Unbenannter_Verlauf_4"/><linearGradient id="Unbenannter_Verlauf_4-7" x1="2854.99" y1="1179.76" x2="2944.96" y2="1179.76" gradientTransform="translate(10.34 -3.11)" xlink:href="#Unbenannter_Verlauf_4"/><linearGradient id="Unbenannter_Verlauf_4-8" x1="2728.23" y1="969.28" x2="2818.19" y2="969.28" gradientTransform="translate(-5.72 7.44)" xlink:href="#Unbenannter_Verlauf_4"/><linearGradient id="Unbenannter_Verlauf_4-9" x1="2728.23" y1="1121.05" x2="2818.19" y2="1121.05" gradientTransform="translate(6.14 6.97)" xlink:href="#Unbenannter_Verlauf_4"/><linearGradient id="Unbenannter_Verlauf_4-10" x1="2854.99" y1="1033.97" x2="2944.96" y2="1033.97" gradientTransform="translate(-1.05 -2.67)" xlink:href="#Unbenannter_Verlauf_4"/></defs><title>machine_learning</title><polyline class="cls-1" points="111.83 144.56 22.82 214.19 123.39 292.14 154.81 400.85 267.44 348.7 430.66 332.17 385.38 198.94 386.4 54.04 245.93 75.02"/><polygon class="cls-1" points="137.71 22.82 120.7 132.29 246.46 81.84 137.71 22.82"/><polyline class="cls-2" points="253.21 196.72 133.25 288.36 121.37 136.83"/><line class="cls-3" x1="121.05" y1="136.8" x2="266.62" y2="339.09"/><polyline class="cls-4" points="255.23 191.56 246.39 82.05 135.59 287.83 267.44 348.7 385.41 198.92 255.03 191.17 267.02 344.08"/><polygon class="cls-5" points="246.46 81.84 385.38 198.94 255.03 191.17 121.05 136.8 246.46 81.84"/><circle class="cls-6" cx="2890.35" cy="921.97" r="44.98" transform="translate(-2707.1 -611.43) rotate(-4.48)"/><circle class="cls-7" cx="3029.27" cy="1039.06" r="44.98" transform="translate(-2715.83 -600.21) rotate(-4.48)"/><circle class="cls-8" cx="2910.31" cy="1176.64" r="44.98" transform="translate(-2726.94 -609.09) rotate(-4.48)"/><circle class="cls-9" cx="2767.49" cy="976.72" r="44.98" transform="translate(-2711.76 -620.86) rotate(-4.48)"/><circle class="cls-10" cx="2779.35" cy="1128.03" r="44.98" transform="translate(-2723.54 -619.47) rotate(-4.48)"/><circle class="cls-11" cx="2898.92" cy="1031.3" r="44.98" transform="translate(-2715.62 -610.42) rotate(-4.48)"/><line class="cls-12" x1="68.16" y1="210.64" x2="421.01" y2="348.48"/><circle class="cls-13" cx="2781.6" cy="862.95" r="22.82" transform="translate(-2702.82 -620.11) rotate(-4.48)"/><circle class="cls-13" cx="3030.29" cy="894.17" r="22.82" transform="matrix(1, -0.08, 0.08, 1, -2704.5, -600.58)"/><circle class="cls-13" cx="3074.55" cy="1172.29" r="22.82" transform="translate(-2726.1 -596.27) rotate(-4.48)"/><circle class="cls-13" cx="2798.7" cy="1240.97" r="22.82" transform="matrix(1, -0.08, 0.08, 1, -2732.31, -617.62)"/><circle class="cls-13" cx="2666.71" cy="1054.31" r="22.82" transform="translate(-2718.13 -628.5) rotate(-4.48)"/></svg>