<svg id="Ebene_1" data-name="Ebene 1" xmlns="http://www.w3.org/2000/svg" xmlns:xlink="http://www.w3.org/1999/xlink" viewBox="0 0 501.3 304"><defs><style>.cls-1{fill:#dcdcdc;}.cls-2{fill:#fff;}.cls-3{fill:url(#Unbenannter_Verlauf_4);}.cls-4{fill:url(#Unbenannter_Verlauf_4-2);}.cls-5{fill:url(#Unbenannter_Verlauf_4-3);}.cls-6{fill:url(#Unbenannter_Verlauf_4-5);}.cls-7{fill:url(#Unbenannter_Verlauf_4-6);}.cls-8{fill:url(#Unbenannter_Verlauf_4-7);}.cls-9{fill:url(#Unbenannter_Verlauf_4-8);}.cls-10{fill:url(#Unbenannter_Verlauf_4-9);}.cls-11{fill:url(#Unbenannter_Verlauf_4-10);}</style><linearGradient id="Unbenannter_Verlauf_4" x1="2461.97" y1="211.34" x2="2866.97" y2="211.34" gradientUnits="userSpaceOnUse"><stop offset="0" stop-color="#31b1e7"/><stop offset="0.5" stop-color="#268cf5"/><stop offset="1" stop-color="#2f58f7"/></linearGradient><linearGradient id="Unbenannter_Verlauf_4-2" x1="2462.63" y1="211.11" x2="2866.11" y2="211.11" xlink:href="#Unbenannter_Verlauf_4"/><linearGradient id="Unbenannter_Verlauf_4-3" x1="2426.97" y1="355.34" x2="2901.97" y2="355.34" xlink:href="#Unbenannter_Verlauf_4"/><linearGradient id="Unbenannter_Verlauf_4-5" x1="2511.32" y1="292.88" x2="2548.76" y2="292.88" xlink:href="#Unbenannter_Verlauf_4"/><linearGradient id="Unbenannter_Verlauf_4-6" x1="152.74" y1="211.15" x2="217.76" y2="211.15" xlink:href="#Unbenannter_Verlauf_4"/><linearGradient id="Unbenannter_Verlauf_4-7" x1="232.74" y1="211.15" x2="323.76" y2="211.15" xlink:href="#Unbenannter_Verlauf_4"/><linearGradient id="Unbenannter_Verlauf_4-8" x1="338.38" y1="211.15" x2="374.76" y2="211.15" xlink:href="#Unbenannter_Verlauf_4"/><linearGradient id="Unbenannter_Verlauf_4-9" x1="152.74" y1="242.15" x2="243.76" y2="242.15" xlink:href="#Unbenannter_Verlauf_4"/><linearGradient id="Unbenannter_Verlauf_4-10" x1="257.07" y1="242.15" x2="293.45" y2="242.15" xlink:href="#Unbenannter_Verlauf_4"/></defs><title>web_development</title><rect class="cls-1" x="425.3" y="84.17" width="76" height="76" rx="2" ry="2"/><rect class="cls-1" y="84.17" width="76" height="76" rx="2" ry="2"/><path class="cls-2" d="M2474.63,349.34a2,2,0,0,1-1.73-1l-0.65-1.11a2,2,0,0,1-.27-1V76a2,2,0,0,1,.6-1.43l0.65-.64a2,2,0,0,1,1.4-.57h379.48a2,2,0,0,1,1.19.39l0.87,0.64A2,2,0,0,1,2857,76V346.23a2,2,0,0,1-.42,1.23l-0.87,1.11a2,2,0,0,1-1.58.77H2474.63Z" transform="translate(-2413.72 -63.34)"/><rect class="cls-2" x="58.91" y="10.64" width="383.48" height="274.25" rx="2" ry="2"/><path class="cls-3" d="M2464.63,359.34a2,2,0,0,1-1.73-1l-0.65-1.11a2,2,0,0,1-.27-1V66a2,2,0,0,1,.6-1.43l0.65-.64a2,2,0,0,1,1.4-.57h399.48a2,2,0,0,1,1.19.39l0.87,0.64A2,2,0,0,1,2867,66V356.23a2,2,0,0,1-.42,1.23l-0.87,1.11a2,2,0,0,1-1.58.77H2464.63Zm376.35-26v-244H2488v244h353Z" transform="translate(-2413.72 -63.34)"/><path class="cls-4" d="M2464.63,358.23a2,2,0,0,1-2-2V66a2,2,0,0,1,2-2h399.48a2,2,0,0,1,2,2V356.23a2,2,0,0,1-2,2H2464.63Zm377.48-24V88H2486.63V334.23h355.48Z" transform="translate(-2413.72 -63.34)"/><path class="cls-5" d="M2900,357.34H2429a2,2,0,0,1,0-4h471A2,2,0,0,1,2900,357.34Z" transform="translate(-2413.72 -63.34)"/><rect class="cls-5" x="13.26" y="280" width="475" height="24" rx="2" ry="2"/><rect class="cls-1" x="95.74" y="35.41" width="309.82" height="22.33" rx="2" ry="2"/><rect class="cls-1" x="97.82" y="82.5" width="76" height="76" rx="2" ry="2"/><rect class="cls-1" x="327.64" y="82.5" width="76" height="76" rx="2" ry="2"/><rect class="cls-1" x="212.73" y="82.5" width="76" height="76" rx="2" ry="2"/><path class="cls-6" d="M2514.27,282.41c5.86,5.86,11.7,11.72,17.7,17.58V285.85c-6,5.83-11.78,11.66-17.61,17.49-9.11,9.11,5,23.26,14.08,14.14,5.83-5.83,11.63-11.66,17.46-17.49a10.15,10.15,0,0,0,0-14.14c-5.86-5.86-11.67-11.72-17.53-17.58-9.11-9.11-23.21,5-14.09,14.14h0Z" transform="translate(-2413.72 -63.34)"/><rect class="cls-7" x="152.74" y="199.99" width="65.02" height="22.33" rx="2" ry="2"/><rect class="cls-8" x="232.74" y="199.99" width="91.02" height="22.33" rx="2" ry="2"/><rect class="cls-9" x="338.38" y="199.99" width="36.38" height="22.33" rx="2" ry="2"/><rect class="cls-10" x="152.74" y="230.99" width="91.02" height="22.33" rx="2" ry="2"/><rect class="cls-11" x="257.07" y="230.99" width="36.38" height="22.33" rx="2" ry="2"/></svg>