<svg id="Ebene_1" data-name="Ebene 1" xmlns="http://www.w3.org/2000/svg" xmlns:xlink="http://www.w3.org/1999/xlink" viewBox="0 0 501.3 303.36"><defs><style>.cls-1{fill:#dcdcdc;}.cls-2{fill:#fff;}.cls-3{fill:url(#Unbenannter_Verlauf_4);}.cls-4{fill:url(#Unbenannter_Verlauf_4-2);}.cls-5{fill:url(#Unbenannter_Verlauf_4-4);}.cls-6{fill:url(#Unbenannter_Verlauf_4-5);}.cls-7{fill:url(#Unbenannter_Verlauf_4-6);}.cls-8{fill:url(#Unbenannter_Verlauf_4-7);}.cls-9{fill:url(#Unbenannter_Verlauf_4-8);}.cls-10{fill:url(#Unbenannter_Verlauf_4-9);}</style><linearGradient id="Unbenannter_Verlauf_4" x1="2211.63" y1="1742.11" x2="2615.11" y2="1742.11" gradientUnits="userSpaceOnUse"><stop offset="0" stop-color="#31b1e7"/><stop offset="0.5" stop-color="#268cf5"/><stop offset="1" stop-color="#2f58f7"/></linearGradient><linearGradient id="Unbenannter_Verlauf_4-2" x1="2175.97" y1="1886.34" x2="2650.97" y2="1886.34" xlink:href="#Unbenannter_Verlauf_4"/><linearGradient id="Unbenannter_Verlauf_4-4" x1="2260.32" y1="1823.88" x2="2297.76" y2="1823.88" xlink:href="#Unbenannter_Verlauf_4"/><linearGradient id="Unbenannter_Verlauf_4-5" x1="152.74" y1="210.51" x2="217.76" y2="210.51" xlink:href="#Unbenannter_Verlauf_4"/><linearGradient id="Unbenannter_Verlauf_4-6" x1="232.74" y1="210.51" x2="323.76" y2="210.51" xlink:href="#Unbenannter_Verlauf_4"/><linearGradient id="Unbenannter_Verlauf_4-7" x1="338.38" y1="210.51" x2="374.76" y2="210.51" xlink:href="#Unbenannter_Verlauf_4"/><linearGradient id="Unbenannter_Verlauf_4-8" x1="152.74" y1="241.51" x2="243.76" y2="241.51" xlink:href="#Unbenannter_Verlauf_4"/><linearGradient id="Unbenannter_Verlauf_4-9" x1="257.07" y1="241.51" x2="293.45" y2="241.51" xlink:href="#Unbenannter_Verlauf_4"/></defs><title>web_development</title><rect class="cls-1" x="425.3" y="83.53" width="76" height="76" rx="2" ry="2"/><rect class="cls-1" y="83.53" width="76" height="76" rx="2" ry="2"/><rect class="cls-2" x="58.91" y="10" width="383.48" height="274.25" rx="2" ry="2"/><path class="cls-3" d="M2213.63,1889.23a2,2,0,0,1-2-2V1597a2,2,0,0,1,2-2h399.48a2,2,0,0,1,2,2v290.25a2,2,0,0,1-2,2H2213.63Zm377.48-24V1619H2235.63v246.25h355.48Z" transform="translate(-2162.72 -1594.98)"/><path class="cls-4" d="M2649,1888.34H2178a2,2,0,0,1,0-4h471A2,2,0,0,1,2649,1888.34Z" transform="translate(-2162.72 -1594.98)"/><rect class="cls-4" x="13.26" y="279.36" width="475" height="24" rx="2" ry="2"/><rect class="cls-1" x="95.74" y="34.77" width="309.82" height="22.33" rx="2" ry="2"/><rect class="cls-1" x="97.82" y="81.86" width="76" height="76" rx="2" ry="2"/><rect class="cls-1" x="327.64" y="81.86" width="76" height="76" rx="2" ry="2"/><rect class="cls-1" x="212.73" y="81.86" width="76" height="76" rx="2" ry="2"/><path class="cls-5" d="M2263.27,1813.41c5.86,5.86,11.7,11.72,17.7,17.58v-14.14c-6,5.83-11.78,11.66-17.61,17.49-9.11,9.11,5,23.26,14.08,14.14,5.83-5.83,11.63-11.66,17.46-17.49a10.15,10.15,0,0,0,0-14.14c-5.86-5.86-11.67-11.72-17.53-17.58-9.11-9.11-23.21,5-14.09,14.14h0Z" transform="translate(-2162.72 -1594.98)"/><rect class="cls-6" x="152.74" y="199.35" width="65.02" height="22.33" rx="2" ry="2"/><rect class="cls-7" x="232.74" y="199.35" width="91.02" height="22.33" rx="2" ry="2"/><rect class="cls-8" x="338.38" y="199.35" width="36.38" height="22.33" rx="2" ry="2"/><rect class="cls-9" x="152.74" y="230.35" width="91.02" height="22.33" rx="2" ry="2"/><rect class="cls-10" x="257.07" y="230.35" width="36.38" height="22.33" rx="2" ry="2"/></svg>